<?xml version="1.0" standalone="no"?>
<!DOCTYPE svg PUBLIC "-//W3C//DTD SVG 20010904//EN"
 "http://www.w3.org/TR/2001/REC-SVG-20010904/DTD/svg10.dtd">
<svg version="1.0" xmlns="http://www.w3.org/2000/svg"
 width="512.000000pt" height="512.000000pt" viewBox="0 0 512.000000 512.000000"
 preserveAspectRatio="xMidYMid meet">

<g transform="translate(0.000000,512.000000) scale(0.100000,-0.100000)"
fill="#000000" stroke="#03ddf9" stroke-width="200" style="paint-order:stroke fill markers">
<path d="M2212 4493 c-44 -113 -481 -1257 -584 -1528 -27 -71 -67 -175 -88
-230 -21 -55 -97 -253 -168 -440 -72 -187 -248 -648 -393 -1025 -144 -377
-264 -693 -267 -702 -4 -17 20 -18 396 -18 l400 0 16 43 c17 44 158 451 306
877 49 140 116 334 150 430 34 96 99 283 145 415 46 132 133 382 193 555 60
173 136 389 167 480 31 91 60 168 64 173 9 9 29 -44 217 -568 80 -225 172
-482 204 -570 53 -148 342 -953 466 -1300 29 -82 84 -235 122 -340 l69 -190
392 -3 c220 -1 391 2 391 7 0 4 -9 30 -20 57 -24 61 -57 146 -325 844 -119
311 -232 604 -250 652 -19 48 -71 182 -115 298 -44 116 -96 250 -114 298 -19
48 -52 134 -74 192 -23 58 -67 175 -100 260 -33 85 -142 369 -243 630 -100
261 -202 527 -226 590 -25 63 -50 131 -57 150 l-13 35 -316 3 -315 2 -30 -77z"/>
</g>
</svg>
